<svg width="1737" height="935" viewBox="0 0 1737 935" fill="none" xmlns="http://www.w3.org/2000/svg">
<path d="M586.894 435.8C586.894 411.533 592.144 389.95 602.644 371.05C613.144 351.917 627.727 337.1 646.394 326.6C665.294 315.867 686.644 310.5 710.444 310.5C739.61 310.5 764.577 318.2 785.344 333.6C806.11 349 819.994 370 826.994 396.6H761.194C756.294 386.333 749.294 378.517 740.194 373.15C731.327 367.783 721.177 365.1 709.744 365.1C691.31 365.1 676.377 371.517 664.944 384.35C653.51 397.183 647.794 414.333 647.794 435.8C647.794 457.267 653.51 474.417 664.944 487.25C676.377 500.083 691.31 506.5 709.744 506.5C721.177 506.5 731.327 503.817 740.194 498.45C749.294 493.083 756.294 485.267 761.194 475H826.994C819.994 501.6 806.11 522.6 785.344 538C764.577 553.167 739.61 560.75 710.444 560.75C686.644 560.75 665.294 555.5 646.394 545C627.727 534.267 613.144 519.45 602.644 500.55C592.144 481.65 586.894 460.067 586.894 435.8ZM941.495 313.3V559H881.645V313.3H941.495ZM1233.52 313.3L1146.37 559H1071.47L984.318 313.3H1048.02L1108.92 498.8L1170.17 313.3H1233.52ZM1336.38 313.3V559H1276.53V313.3H1336.38ZM1387.6 435.8C1387.6 411.533 1392.85 389.95 1403.35 371.05C1413.85 351.917 1428.44 337.1 1447.1 326.6C1466 315.867 1487.35 310.5 1511.15 310.5C1540.32 310.5 1565.29 318.2 1586.05 333.6C1606.82 349 1620.7 370 1627.7 396.6H1561.9C1557 386.333 1550 378.517 1540.9 373.15C1532.04 367.783 1521.89 365.1 1510.45 365.1C1492.02 365.1 1477.09 371.517 1465.65 384.35C1454.22 397.183 1448.5 414.333 1448.5 435.8C1448.5 457.267 1454.22 474.417 1465.65 487.25C1477.09 500.083 1492.02 506.5 1510.45 506.5C1521.89 506.5 1532.04 503.817 1540.9 498.45C1550 493.083 1557 485.267 1561.9 475H1627.7C1620.7 501.6 1606.82 522.6 1586.05 538C1565.29 553.167 1540.32 560.75 1511.15 560.75C1487.35 560.75 1466 555.5 1447.1 545C1428.44 534.267 1413.85 519.45 1403.35 500.55C1392.85 481.65 1387.6 460.067 1387.6 435.8Z" fill="#233730"/>
<path d="M1661.45 548.308H1664.88V552.958H1679V557.233H1664.88V561.883H1661.45V548.308ZM1664.88 536.888H1668.42V531.163H1671.72V536.888H1675.57V530.413H1679V541.163H1661.45V530.413H1664.88V536.888ZM1670.2 523.363C1668.47 523.363 1666.92 522.987 1665.57 522.237C1664.21 521.487 1663.15 520.446 1662.4 519.112C1661.63 517.762 1661.25 516.237 1661.25 514.537C1661.25 512.454 1661.8 510.671 1662.9 509.187C1664 507.704 1665.5 506.712 1667.4 506.212V510.912C1666.67 511.262 1666.11 511.762 1665.72 512.412C1665.34 513.046 1665.15 513.771 1665.15 514.587C1665.15 515.904 1665.61 516.971 1666.52 517.787C1667.44 518.604 1668.67 519.012 1670.2 519.012C1671.73 519.012 1672.96 518.604 1673.87 517.787C1674.79 516.971 1675.25 515.904 1675.25 514.587C1675.25 513.771 1675.06 513.046 1674.67 512.412C1674.29 511.762 1673.73 511.262 1673 510.912V506.212C1674.9 506.712 1676.4 507.704 1677.5 509.187C1678.58 510.671 1679.13 512.454 1679.13 514.537C1679.13 516.237 1678.75 517.762 1678 519.112C1677.23 520.446 1676.17 521.487 1674.82 522.237C1673.47 522.987 1671.93 523.363 1670.2 523.363ZM1661.45 483.395H1679V487.67H1671.77V494.32H1679V498.595H1661.45V494.32H1668.32V487.67H1661.45V483.395ZM1679 459.608V463.883L1668.17 471.033H1679V475.308H1661.45V471.033L1672.32 463.883H1661.45V459.608H1679ZM1679.18 443.21C1679.18 444.86 1678.79 446.376 1678.02 447.76C1677.26 449.126 1676.19 450.218 1674.82 451.035C1673.44 451.835 1671.89 452.235 1670.17 452.235C1668.46 452.235 1666.92 451.835 1665.55 451.035C1664.18 450.218 1663.12 449.126 1662.35 447.76C1661.58 446.376 1661.2 444.86 1661.2 443.21C1661.2 441.56 1661.58 440.051 1662.35 438.685C1663.12 437.301 1664.18 436.218 1665.55 435.435C1666.92 434.635 1668.46 434.235 1670.17 434.235C1671.89 434.235 1673.44 434.635 1674.82 435.435C1676.19 436.235 1677.26 437.318 1678.02 438.685C1678.79 440.051 1679.18 441.56 1679.18 443.21ZM1675.27 443.21C1675.27 441.81 1674.81 440.693 1673.87 439.86C1672.94 439.01 1671.71 438.585 1670.17 438.585C1668.62 438.585 1667.39 439.01 1666.47 439.86C1665.54 440.693 1665.07 441.81 1665.07 443.21C1665.07 444.626 1665.53 445.76 1666.45 446.61C1667.37 447.443 1668.61 447.86 1670.17 447.86C1671.72 447.86 1672.97 447.443 1673.9 446.61C1674.82 445.76 1675.27 444.626 1675.27 443.21ZM1675.7 422.581V416.981H1679V426.856H1661.45V422.581H1675.7ZM1679.18 401.642C1679.18 403.292 1678.79 404.809 1678.02 406.192C1677.26 407.559 1676.19 408.651 1674.82 409.467C1673.44 410.267 1671.89 410.667 1670.17 410.667C1668.46 410.667 1666.92 410.267 1665.55 409.467C1664.18 408.651 1663.12 407.559 1662.35 406.192C1661.58 404.809 1661.2 403.292 1661.2 401.642C1661.2 399.992 1661.58 398.484 1662.35 397.117C1663.12 395.734 1664.18 394.651 1665.55 393.867C1666.92 393.067 1668.46 392.667 1670.17 392.667C1671.89 392.667 1673.44 393.067 1674.82 393.867C1676.19 394.667 1677.26 395.751 1678.02 397.117C1678.79 398.484 1679.18 399.992 1679.18 401.642ZM1675.27 401.642C1675.27 400.242 1674.81 399.126 1673.87 398.292C1672.94 397.442 1671.71 397.017 1670.17 397.017C1668.62 397.017 1667.39 397.442 1666.47 398.292C1665.54 399.126 1665.07 400.242 1665.07 401.642C1665.07 403.059 1665.53 404.192 1666.45 405.042C1667.37 405.876 1668.61 406.292 1670.17 406.292C1671.72 406.292 1672.97 405.876 1673.9 405.042C1674.82 404.192 1675.27 403.059 1675.27 401.642ZM1667 373.639C1666.42 373.956 1665.97 374.414 1665.67 375.014C1665.36 375.597 1665.2 376.289 1665.2 377.089C1665.2 378.472 1665.66 379.581 1666.57 380.414C1667.47 381.247 1668.68 381.664 1670.2 381.664C1671.82 381.664 1673.08 381.231 1674 380.364C1674.9 379.481 1675.35 378.272 1675.35 376.739C1675.35 375.689 1675.08 374.806 1674.55 374.089C1674.02 373.356 1673.25 372.822 1672.25 372.489V377.914H1669.1V368.614H1673.07C1674.14 368.931 1675.13 369.472 1676.05 370.239C1676.97 370.989 1677.71 371.947 1678.27 373.114C1678.84 374.281 1679.13 375.597 1679.13 377.064C1679.13 378.797 1678.75 380.347 1678 381.714C1677.23 383.064 1676.17 384.122 1674.82 384.889C1673.47 385.639 1671.93 386.014 1670.2 386.014C1668.47 386.014 1666.92 385.639 1665.57 384.889C1664.21 384.122 1663.15 383.064 1662.4 381.714C1661.63 380.364 1661.25 378.822 1661.25 377.089C1661.25 374.989 1661.76 373.222 1662.77 371.789C1663.79 370.339 1665.2 369.381 1667 368.914V373.639ZM1661.45 356.971H1679V361.246H1661.45V356.971ZM1664.88 344.598H1668.42V338.873H1671.72V344.598H1675.57V338.123H1679V348.873H1661.45V338.123H1664.88V344.598ZM1679.18 323.997C1679.18 325.281 1678.97 326.431 1678.55 327.447C1678.13 328.464 1677.52 329.281 1676.7 329.897C1675.88 330.497 1674.9 330.814 1673.75 330.847V326.297C1674.4 326.231 1674.9 326.006 1675.25 325.622C1675.58 325.239 1675.75 324.739 1675.75 324.122C1675.75 323.489 1675.61 322.989 1675.33 322.622C1675.02 322.256 1674.62 322.072 1674.1 322.072C1673.67 322.072 1673.31 322.222 1673.02 322.522C1672.74 322.806 1672.51 323.164 1672.32 323.597C1672.14 324.014 1671.93 324.614 1671.7 325.397C1671.35 326.531 1671 327.456 1670.65 328.172C1670.3 328.889 1669.78 329.506 1669.1 330.022C1668.42 330.539 1667.52 330.797 1666.42 330.797C1664.79 330.797 1663.52 330.206 1662.6 329.022C1661.67 327.839 1661.2 326.297 1661.2 324.397C1661.2 322.464 1661.67 320.906 1662.6 319.722C1663.52 318.539 1664.8 317.906 1666.45 317.822V322.447C1665.88 322.481 1665.44 322.689 1665.12 323.072C1664.79 323.456 1664.62 323.947 1664.62 324.547C1664.62 325.064 1664.77 325.481 1665.05 325.797C1665.32 326.114 1665.71 326.272 1666.22 326.272C1666.79 326.272 1667.23 326.006 1667.55 325.472C1667.87 324.939 1668.21 324.106 1668.57 322.972C1668.96 321.839 1669.32 320.922 1669.67 320.222C1670.02 319.506 1670.53 318.889 1671.2 318.372C1671.87 317.856 1672.72 317.597 1673.77 317.597C1674.77 317.597 1675.68 317.856 1676.5 318.372C1677.32 318.872 1677.97 319.606 1678.45 320.572C1678.93 321.539 1679.18 322.681 1679.18 323.997Z" fill="#233730"/>
<path d="M338.966 245.847C348.289 239.384 357.943 233.154 367.902 227.165C185.823 364.798 216.054 555.879 423.308 675.868C633.569 786.871 1004.83 778.21 1194.03 633.622C1211.39 621.589 1227.03 609.098 1240.99 596.237C1220.03 624.362 1192.05 651.098 1156.75 675.569C957.242 813.88 610.017 821.09 383.691 702.436C175 593.027 125.594 393.77 338.966 245.847Z" fill="#233730"/>
<path d="M389.804 247.294C480.465 184.442 603.708 152.017 726.824 151.177C626.012 167.63 531.589 200.185 469.028 235.317C274.814 344.383 297.788 530.57 481.108 636.702C602.289 706.86 768.952 726.189 917.469 696.948C753.86 748.737 552.227 735.719 411.729 654.378C228.409 548.246 218.593 365.988 389.804 247.294Z" fill="#C59D5F"/>
<path d="M459.499 260.352C623.653 146.55 914.891 130.898 1094.95 232.915C897.449 171.156 661.023 176.801 503.641 285.908C424.389 340.851 402.02 412.609 415.035 478.494C427.611 542.155 473.233 600.396 532.627 632.754C335.851 555.561 303.383 368.582 459.499 260.352Z" fill="#233730" stroke="#233730"/>
</svg>
